<svg width="153" height="32" viewBox="0 0 153 32" fill="none" xmlns="http://www.w3.org/2000/svg">
<rect x="0.5" y="0.5" width="152" height="31" rx="4.5" fill="#0055D2" stroke="#0055D2"/>
<path d="M38.5605 18.7285H39.6973C40.6777 18.7285 41.4238 18.4727 41.9355 17.9609C42.4473 17.4453 42.7031 16.6953 42.7031 15.7109C42.7031 14.6562 42.4395 13.8906 41.9121 13.4141C41.3848 12.9336 40.5898 12.6934 39.5273 12.6934H38.5605V18.7285ZM36.9727 20V11.416H39.457C40.207 11.416 40.8789 11.502 41.4727 11.6738C42.0664 11.8457 42.5762 12.1055 43.002 12.4531C43.4316 12.7969 43.7598 13.2422 43.9863 13.7891C44.2168 14.332 44.332 14.9609 44.332 15.6758C44.332 17.0625 43.9141 18.1309 43.0781 18.8809C42.2422 19.627 41.084 20 39.6035 20H36.9727ZM48.668 20.123C47.6328 20.123 46.8262 19.8262 46.248 19.2324C45.6738 18.6348 45.3867 17.8105 45.3867 16.7598C45.3867 15.7363 45.6582 14.9219 46.2012 14.3164C46.7441 13.7109 47.4844 13.4062 48.4219 13.4023C49.3086 13.4023 49.9961 13.6797 50.4844 14.2344C50.9766 14.7891 51.2227 15.5254 51.2227 16.4434C51.2227 16.5098 51.2207 16.6172 51.2168 16.7656C51.2168 16.9141 51.2168 17.0234 51.2168 17.0938H46.9336C46.9492 17.6953 47.1133 18.1621 47.4258 18.4941C47.7422 18.8223 48.1758 18.9863 48.7266 18.9863C49.4297 18.9863 50.1055 18.8027 50.7539 18.4355L50.9707 19.5254C50.3262 19.9238 49.5586 20.123 48.668 20.123ZM46.9629 16.127H49.7754C49.7754 15.6035 49.6562 15.2012 49.418 14.9199C49.1797 14.6387 48.8496 14.498 48.4277 14.498C48.0332 14.498 47.6992 14.6348 47.4258 14.9082C47.1562 15.1816 47.002 15.5879 46.9629 16.127ZM52.4766 22.6777V13.5605H53.7949L53.959 14.4629C54.1699 14.123 54.4492 13.8613 54.7969 13.6777C55.1484 13.4902 55.5391 13.3965 55.9688 13.3965C56.4961 13.3965 56.959 13.543 57.3574 13.8359C57.7598 14.1289 58.0645 14.5293 58.2715 15.0371C58.4785 15.541 58.582 16.1113 58.582 16.748C58.582 17.7441 58.3398 18.5566 57.8555 19.1855C57.375 19.8105 56.7227 20.123 55.8984 20.123C55.4922 20.123 55.123 20.043 54.791 19.8828C54.4629 19.7188 54.1875 19.498 53.9648 19.2207C53.9961 19.7832 54.0117 20.0996 54.0117 20.1699V22.6016L52.4766 22.6777ZM55.5703 18.9512C56.0273 18.9512 56.3867 18.7598 56.6484 18.377C56.9141 17.9941 57.0469 17.4473 57.0469 16.7363C57.0469 16.0137 56.9141 15.4707 56.6484 15.1074C56.3828 14.7441 56.0137 14.5625 55.541 14.5625C54.5254 14.5625 54.0117 15.2539 54 16.6367C54 17.4336 54.1309 18.0195 54.3926 18.3945C54.6582 18.7656 55.0508 18.9512 55.5703 18.9512ZM62.0918 20.0879C61.6504 20.0879 61.2832 20.0371 60.9902 19.9355C60.7012 19.8301 60.4727 19.6641 60.3047 19.4375C60.1367 19.2109 60.0195 18.9414 59.9531 18.6289C59.8867 18.3164 59.8535 17.9277 59.8535 17.4629V11.1875L61.3887 11.0879V17.4336C61.3887 18.0117 61.457 18.4043 61.5938 18.6113C61.7305 18.8145 61.9961 18.916 62.3906 18.916C62.5859 18.916 62.834 18.8945 63.1348 18.8516L63.1758 19.9473C63.1719 19.9473 63.123 19.957 63.0293 19.9766C62.9395 19.9961 62.8516 20.0117 62.7656 20.0234C62.6836 20.0391 62.5781 20.0527 62.4492 20.0645C62.3203 20.0801 62.2012 20.0879 62.0918 20.0879ZM66.709 18.957C67.2285 18.957 67.6191 18.7676 67.8809 18.3887C68.1426 18.0098 68.2734 17.4668 68.2734 16.7598C68.2734 16.0449 68.1426 15.5 67.8809 15.125C67.6191 14.75 67.2246 14.5625 66.6973 14.5625C66.1777 14.5625 65.7852 14.752 65.5195 15.1309C65.2578 15.5059 65.127 16.0508 65.127 16.7656C65.127 17.4688 65.2598 18.0098 65.5254 18.3887C65.791 18.7676 66.1855 18.957 66.709 18.957ZM66.668 20.123C65.7148 20.123 64.9648 19.8145 64.418 19.1973C63.8711 18.5801 63.5977 17.7676 63.5977 16.7598C63.5977 15.7207 63.8711 14.9023 64.418 14.3047C64.9648 13.7031 65.7363 13.4023 66.7324 13.4023C67.6934 13.4023 68.4453 13.709 68.9883 14.3223C69.5352 14.9316 69.8086 15.7441 69.8086 16.7598C69.8086 17.7871 69.5332 18.6055 68.9824 19.2148C68.4316 19.8203 67.6602 20.123 66.668 20.123ZM71.3672 22.7129C71.1172 22.7129 70.8516 22.6973 70.5703 22.666L70.4941 21.4766C70.6738 21.4961 70.9023 21.5059 71.1797 21.5059C71.5352 21.5059 71.8203 21.4355 72.0352 21.2949C72.25 21.1543 72.4277 20.9043 72.5684 20.5449C72.584 20.5059 72.6621 20.2852 72.8027 19.8828L70.2129 13.5605H71.8535L73.5469 18.2305C73.6719 17.7656 73.9512 16.9023 74.3848 15.6406C74.8223 14.3789 75.0625 13.6855 75.1055 13.5605H76.7461C74.9609 18.2793 74.0605 20.6582 74.0449 20.6973C73.7676 21.4199 73.418 21.9355 72.9961 22.2441C72.5742 22.5566 72.0312 22.7129 71.3672 22.7129ZM83.3145 20.0879C82.877 20.0879 82.5117 20.0371 82.2188 19.9355C81.9297 19.8301 81.7031 19.666 81.5391 19.4434C81.375 19.2207 81.2578 18.959 81.1875 18.6582C81.1211 18.3535 81.0879 17.9785 81.0879 17.5332V14.4922H80.0332L80.0918 13.6602L81.1934 13.5605L81.6855 11.8145L82.623 11.8086V13.5605H84.2227V14.4922H82.623V17.5625C82.623 18.0508 82.6934 18.3984 82.834 18.6055C82.9746 18.8125 83.2344 18.916 83.6133 18.916C83.8359 18.916 84.0742 18.8965 84.3281 18.8574L84.3691 19.959C84.3613 19.959 84.3125 19.9688 84.2227 19.9883C84.1367 20.0039 84.0527 20.0176 83.9707 20.0293C83.8926 20.0449 83.791 20.0586 83.666 20.0703C83.541 20.082 83.4238 20.0879 83.3145 20.0879ZM88.2012 18.957C88.7207 18.957 89.1113 18.7676 89.373 18.3887C89.6348 18.0098 89.7656 17.4668 89.7656 16.7598C89.7656 16.0449 89.6348 15.5 89.373 15.125C89.1113 14.75 88.7168 14.5625 88.1895 14.5625C87.6699 14.5625 87.2773 14.752 87.0117 15.1309C86.75 15.5059 86.6191 16.0508 86.6191 16.7656C86.6191 17.4688 86.752 18.0098 87.0176 18.3887C87.2832 18.7676 87.6777 18.957 88.2012 18.957ZM88.1602 20.123C87.207 20.123 86.457 19.8145 85.9102 19.1973C85.3633 18.5801 85.0898 17.7676 85.0898 16.7598C85.0898 15.7207 85.3633 14.9023 85.9102 14.3047C86.457 13.7031 87.2285 13.4023 88.2246 13.4023C89.1855 13.4023 89.9375 13.709 90.4805 14.3223C91.0273 14.9316 91.3008 15.7441 91.3008 16.7598C91.3008 17.7871 91.0254 18.6055 90.4746 19.2148C89.9238 19.8203 89.1523 20.123 88.1602 20.123ZM95.877 20V11.416H101.08L101.016 12.6758H97.4648V14.8906H100.84V16.1504H97.4648V18.7344H101.145L101.092 20H95.877ZM104.877 20.123C104.037 20.123 103.377 19.8145 102.896 19.1973C102.416 18.5801 102.176 17.7559 102.176 16.7246C102.176 15.7246 102.414 14.9219 102.891 14.3164C103.371 13.707 104.031 13.4023 104.871 13.4023C105.785 13.4023 106.432 13.7266 106.811 14.375C106.771 13.9922 106.752 13.623 106.752 13.2676V11.1875L108.287 11.0879V20H106.957L106.787 19.1211C106.721 19.2266 106.658 19.3184 106.6 19.3965C106.545 19.4707 106.463 19.5586 106.354 19.6602C106.244 19.7578 106.125 19.8379 105.996 19.9004C105.871 19.959 105.711 20.0098 105.516 20.0527C105.324 20.0996 105.111 20.123 104.877 20.123ZM105.24 18.957C106.271 18.957 106.795 18.2559 106.811 16.8535C106.811 16.0605 106.678 15.4824 106.412 15.1191C106.146 14.7559 105.75 14.5742 105.223 14.5742C104.762 14.5742 104.393 14.7598 104.115 15.1309C103.842 15.498 103.705 16.041 103.705 16.7598C103.705 17.4746 103.842 18.0195 104.115 18.3945C104.393 18.7695 104.768 18.957 105.24 18.957ZM111.152 22.8828L111.064 21.6406H111.844C112.746 21.6406 113.377 21.5195 113.736 21.2773C114.096 21.0391 114.275 20.5996 114.275 19.959C114.275 19.6973 114.264 19.4141 114.24 19.1094C114.139 19.25 114.041 19.3672 113.947 19.4609C113.857 19.5508 113.742 19.6406 113.602 19.7305C113.465 19.8203 113.299 19.8887 113.104 19.9355C112.912 19.9785 112.693 20 112.447 20C111.596 20 110.895 19.6934 110.344 19.0801C109.797 18.4668 109.523 17.6758 109.523 16.707C109.523 16.1914 109.6 15.7227 109.752 15.3008C109.904 14.875 110.111 14.5254 110.373 14.252C110.635 13.9785 110.936 13.7695 111.275 13.625C111.619 13.4766 111.984 13.4023 112.371 13.4023C113.234 13.4023 113.877 13.7168 114.299 14.3457L114.404 13.5605H115.775V19.543C115.775 19.8633 115.76 20.1504 115.729 20.4043C115.697 20.6621 115.643 20.9082 115.564 21.1426C115.486 21.3809 115.383 21.5879 115.254 21.7637C115.129 21.9395 114.971 22.0996 114.779 22.2441C114.588 22.3887 114.361 22.5059 114.1 22.5957C113.842 22.6895 113.541 22.7598 113.197 22.8066C112.854 22.8574 112.467 22.8828 112.037 22.8828H111.152ZM112.693 18.9277C113.752 18.9277 114.287 18.2188 114.299 16.8008V16.5781C114.291 15.9414 114.158 15.4492 113.9 15.1016C113.643 14.7539 113.266 14.5781 112.77 14.5742C112.207 14.5742 111.781 14.7676 111.492 15.1543C111.203 15.5371 111.059 16.0547 111.059 16.707C111.059 17.3359 111.203 17.8633 111.492 18.2891C111.785 18.7148 112.186 18.9277 112.693 18.9277ZM120.27 20.123C119.234 20.123 118.428 19.8262 117.85 19.2324C117.275 18.6348 116.988 17.8105 116.988 16.7598C116.988 15.7363 117.26 14.9219 117.803 14.3164C118.346 13.7109 119.086 13.4062 120.023 13.4023C120.91 13.4023 121.598 13.6797 122.086 14.2344C122.578 14.7891 122.824 15.5254 122.824 16.4434C122.824 16.5098 122.822 16.6172 122.818 16.7656C122.818 16.9141 122.818 17.0234 122.818 17.0938H118.535C118.551 17.6953 118.715 18.1621 119.027 18.4941C119.344 18.8223 119.777 18.9863 120.328 18.9863C121.031 18.9863 121.707 18.8027 122.355 18.4355L122.572 19.5254C121.928 19.9238 121.16 20.123 120.27 20.123ZM118.564 16.127H121.377C121.377 15.6035 121.258 15.2012 121.02 14.9199C120.781 14.6387 120.451 14.498 120.029 14.498C119.635 14.498 119.301 14.6348 119.027 14.9082C118.758 15.1816 118.604 15.5879 118.564 16.127ZM126.182 18.0137C126.607 18.5566 127.236 18.8281 128.068 18.8281C128.9 18.8281 129.527 18.5586 129.949 18.0195C130.375 17.4766 130.588 16.7109 130.588 15.7227C130.588 14.7227 130.375 13.9473 129.949 13.3965C129.527 12.8457 128.902 12.5703 128.074 12.5703C127.242 12.5703 126.611 12.8477 126.182 13.4023C125.756 13.9531 125.543 14.7266 125.543 15.7227C125.543 16.707 125.756 17.4707 126.182 18.0137ZM128.062 20.123C126.77 20.123 125.748 19.7324 124.998 18.9512C124.252 18.166 123.879 17.084 123.879 15.7051C123.879 14.3184 124.254 13.2363 125.004 12.459C125.754 11.6816 126.775 11.293 128.068 11.293C129.361 11.293 130.381 11.6836 131.127 12.4648C131.873 13.2422 132.246 14.3242 132.246 15.7109C132.246 17.082 131.871 18.1602 131.121 18.9453C130.371 19.7305 129.352 20.123 128.062 20.123ZM133.605 20V13.5605H134.842L135.012 14.375C135.668 13.7266 136.396 13.4023 137.197 13.4023C137.947 13.4023 138.508 13.6191 138.879 14.0527C139.254 14.4824 139.441 15.1074 139.441 15.9277V20H137.9V16.1152C137.896 15.5957 137.812 15.207 137.648 14.9492C137.484 14.6914 137.189 14.5625 136.764 14.5625C136.432 14.5625 136.127 14.6484 135.85 14.8203C135.576 14.9883 135.377 15.2012 135.252 15.459C135.178 15.7637 135.141 16.2324 135.141 16.8652V20H133.605ZM143.93 20.123C142.895 20.123 142.088 19.8262 141.51 19.2324C140.936 18.6348 140.648 17.8105 140.648 16.7598C140.648 15.7363 140.92 14.9219 141.463 14.3164C142.006 13.7109 142.746 13.4062 143.684 13.4023C144.57 13.4023 145.258 13.6797 145.746 14.2344C146.238 14.7891 146.484 15.5254 146.484 16.4434C146.484 16.5098 146.482 16.6172 146.479 16.7656C146.479 16.9141 146.479 17.0234 146.479 17.0938H142.195C142.211 17.6953 142.375 18.1621 142.688 18.4941C143.004 18.8223 143.438 18.9863 143.988 18.9863C144.691 18.9863 145.367 18.8027 146.016 18.4355L146.232 19.5254C145.588 19.9238 144.82 20.123 143.93 20.123ZM142.225 16.127H145.037C145.037 15.6035 144.918 15.2012 144.68 14.9199C144.441 14.6387 144.111 14.498 143.689 14.498C143.295 14.498 142.961 14.6348 142.688 14.9082C142.418 15.1816 142.264 15.5879 142.225 16.127Z" fill="white"/>
<path d="M29.8101 18.138C29.9349 17.4442 30 16.7297 30 16C30 15.3831 29.9535 14.7772 29.8637 14.1854C29.829 13.9567 29.6296 13.792 29.3983 13.792H21.6802C21.4277 13.792 21.2439 13.5525 21.3093 13.3086L22.2229 9.89892C22.2904 9.6471 22.5185 9.472 22.7792 9.472H27.3634C27.668 9.472 27.8488 9.13574 27.6682 8.89047C25.4834 5.9244 21.9664 4 18 4C11.3726 4 6 9.37258 6 16C6 19.0173 7.11361 21.7745 8.95224 23.883C9.14804 24.1076 9.5076 24.0146 9.58436 23.7268L12.2394 13.7702C12.2882 13.5874 12.1504 13.408 11.9612 13.408H9.65504C9.40274 13.408 9.21899 13.1689 9.284 12.9251L10.0327 10.1174C10.0889 9.90673 10.28 9.76117 10.498 9.75666C13.0104 9.70465 15.493 9.04698 17.6975 7.84351C17.9253 7.71913 18.2007 7.92739 18.1338 8.1782L13.2499 26.4929C13.177 26.7664 13.313 27.0538 13.5761 27.1582C14.9451 27.7014 16.4377 28 18 28C21.7878 28 25.1656 26.2451 27.3649 23.5039C27.5597 23.2611 27.3809 22.912 27.0696 22.912H19.2365C18.984 22.912 18.8002 22.6725 18.8656 22.4286L19.7792 19.0189C19.8467 18.7671 20.0749 18.592 20.3356 18.592H29.2564C29.5268 18.592 29.7622 18.4042 29.8101 18.138Z" fill="white"/>
</svg>
